<?xml version="1.0" encoding="UTF-8"?>
<svg width="180px" height="60px" viewBox="0 0 180 60" version="1.1" xmlns="http://www.w3.org/2000/svg" xmlns:xlink="http://www.w3.org/1999/xlink">
    <title>onsite</title>
    <g id="Page-3" stroke="none" stroke-width="1" fill="none" fill-rule="evenodd">
        <g id="onsite">
            <rect id="Rectangle-Copy-2" fill="#FFFFFF" x="0" y="0" width="180" height="60"></rect>
            <g id="logo-1" transform="translate(32.000000, 5.000000)">
                <polygon id="Path" fill="#A61B19" fill-rule="nonzero" points="53.6763712 0.644824516 53.6763712 26.2458931 53.5787177 26.2458931 44.494689 10.3924218 37.1962169 10.3924218 37.1962169 36.6667178 43.8689554 36.6667178 43.8689554 20.9614026 43.9666089 20.9614026 53.0558959 36.6667178 60.3551192 36.6667178 60.3551192 0.644824516"></polygon>
                <polygon id="Path" fill="#0075BF" fill-rule="nonzero" points="82.9378659 36.5784383 82.9378659 21.1364264 87.0888907 21.1364264 87.0888907 36.5784383"></polygon>
                <path d="M97.4641991,36.742715 C97.0555568,36.7524386 96.6464137,36.7575562 96.2367698,36.7581304 C95.6256588,36.7600369 95.0152564,36.7153893 94.4106494,36.6244972 C93.874126,36.5486253 93.357346,36.3660691 92.8895084,36.0871434 C92.4503733,35.8182216 92.0918246,35.4313682 91.852879,34.96868 C91.5982287,34.4904351 91.4727815,33.8632665 91.4727815,33.0864065 L91.4727815,23.9736543 L86.5149886,23.9736543 L86.5149886,21.1333559 L91.4727815,21.1333559 L91.4727815,16.5082752 L95.6253086,16.5082752 L95.6253086,21.1364264 L98.6660883,21.1364264 L98.6660883,23.9767249 L95.6253086,23.9767249 L95.6253086,31.623269 C95.6253086,32.3410201 95.7439952,32.8192649 95.9753589,33.0580035 C96.2067225,33.2967421 96.6769617,33.4157276 97.3815692,33.4157276 C97.8125858,33.4207605 98.2429822,33.3808928 98.6660883,33.2967421 L98.6660883,36.6129825 C98.2698142,36.6911894 97.867717,36.734592 97.4641991,36.742715 L97.4641991,36.742715 Z" id="Path" fill="#0075BF" fill-rule="nonzero"></path>
                <path d="M104.06858,29.9190899 C104.108643,31.2118095 104.425391,32.2169169 105.018824,32.9344121 C105.612257,33.6519073 106.533204,34.0101432 107.781667,34.0091197 C108.10693,34.0053242 108.43045,33.959936 108.74468,33.8740136 C109.087093,33.7875597 109.415848,33.652141 109.721215,33.4717659 C110.022323,33.2917718 110.298036,33.0707043 110.540753,32.814659 C110.779112,32.5621638 110.954786,32.25497 111.053059,31.9188135 L114.7053,31.9188135 C113.594554,35.5221543 111.237098,37.3240806 107.632933,37.3245924 C106.443563,37.3245924 105.372129,37.1152803 104.41863,36.6966561 C103.495215,36.3013935 102.66722,35.7051614 101.992317,34.9494887 C101.310891,34.1720012 100.788811,33.2628684 100.456903,32.27577 C100.087376,31.1806764 99.9049333,30.0287856 99.9175554,28.8704824 C99.9074532,27.730749 100.095672,26.5982536 100.473429,25.525839 C100.820823,24.5279276 101.356814,23.6095486 102.050909,22.8229496 C102.732604,22.0574626 103.564785,21.4476998 104.492997,21.0335616 C105.436981,20.6052139 106.484377,20.39104 107.635186,20.39104 C108.823554,20.39104 109.875207,20.6249168 110.790145,21.0926705 C111.686628,21.5456725 112.475471,22.1933068 113.101529,22.9902969 C113.7395,23.8172127 114.219587,24.7593741 114.516753,25.7676482 C114.844243,26.8620309 115.007105,28.0009139 114.999762,29.1453005 L114.999762,29.5621334 C114.999682,29.6827607 114.989883,29.8031764 114.970466,29.9221605 L104.06858,29.9190899 Z M109.842155,24.6476495 C109.363904,24.0186897 108.589186,23.7049774 107.518002,23.7065071 C106.524941,23.7065071 105.711412,24.0148514 105.077416,24.6315288 C104.443419,25.2482063 104.107141,26.0844311 104.06858,27.1402033 L110.821695,27.1402033 C110.645418,26.1054135 110.318905,25.2745622 109.842155,24.6476495 Z" id="Shape" fill="#0075BF" fill-rule="nonzero"></path>
                <path d="M79.7829068,33.4280099 C79.2894089,34.2783942 78.6085719,34.9993901 77.7945313,35.5336691 C76.9375127,36.0881553 75.9931452,36.4870648 75.0031437,36.7127767 C73.9732869,36.960382 72.9189294,37.0858251 71.8609546,37.0866652 C70.7314202,37.0896173 69.606527,36.9388562 68.5159468,36.6383149 C67.4884667,36.3675011 66.5200916,35.9013456 65.66146,35.2642245 C64.8371296,34.6410036 64.1623223,33.8343258 63.6881082,32.9052415 C63.1953336,31.9507989 62.9584613,30.815703 62.9774912,29.4999539 L67.4192229,29.4999539 C67.4192229,30.1974903 67.5444197,30.7949765 67.7948133,31.2924126 C68.0363361,31.7742826 68.3830498,32.1929462 68.8081561,32.5160438 C69.2455685,32.8456796 69.7419287,33.0845656 70.2692027,33.2192096 C70.8470446,33.3710017 71.4416157,33.4460816 72.0382333,33.4425953 C72.484343,33.4396455 72.9294896,33.3998541 73.3693256,33.3236098 C73.8280468,33.2497012 74.2751446,33.1139222 74.6989155,32.9198268 C75.0959954,32.7414608 75.4428837,32.4640432 75.7077512,32.1130285 C75.9701637,31.7655398 76.1013699,31.3226067 76.1013699,30.7842294 C76.1013699,30.2079815 75.9210866,29.739972 75.5605198,29.3802008 C75.1524569,28.9903018 74.676849,28.6815516 74.1580654,28.46977 C73.5151841,28.1989762 72.8510219,27.9842915 72.1726947,27.8280161 C71.4215139,27.6478746 70.6610686,27.4536596 69.8913587,27.2453711 C69.1216489,27.0370825 68.3599516,26.7932263 67.6062669,26.5138023 C66.8918025,26.2533946 66.2214549,25.8807001 65.6193938,25.4091565 C65.0421721,24.9468661 64.5649118,24.367401 64.2176906,23.7072804 C63.857875,23.0309823 63.679094,22.1927104 63.679094,21.1978383 C63.679094,20.1231308 63.9074529,19.181994 64.3641708,18.3744281 C64.81363,17.5772511 65.4275401,16.8896345 66.1632487,16.3593515 C66.9205163,15.81208 67.7644286,15.4022977 68.65792,15.1480026 C69.575593,14.8807691 70.5251502,14.7449796 71.4793548,14.7449796 C72.5279959,14.7438413 73.5730213,14.8706328 74.5922478,15.1226702 C75.5488682,15.3505123 76.4565192,15.7556156 77.2702072,16.3178985 C78.0507901,16.8668797 78.6913812,17.5989013 79.1383937,18.4527282 C79.6056281,19.3293825 79.8394957,20.3846429 79.8399965,21.6185095 L75.3975136,21.6185095 C75.3584522,20.9821291 75.2262444,20.4532195 75.0031437,20.0363865 C74.7942858,19.6348448 74.4873888,19.2953049 74.1122433,19.0507262 C73.717929,18.8016847 73.2819095,18.6293876 72.8262219,18.5425431 C72.3159479,18.4409664 71.7971482,18.3908288 71.2772872,18.3928517 C70.8978977,18.3940607 70.5198751,18.4393877 70.1505161,18.5279577 C69.7898587,18.6096917 69.4445805,18.750727 69.1281591,18.9455584 C68.8296496,19.1309763 68.5790074,19.3868499 68.3972602,19.6917125 C68.2048271,20.0315049 68.1086002,20.4192693 68.1193234,20.8117112 C68.1195959,21.028409 68.1448085,21.244322 68.1944414,21.4550005 C68.2439951,21.6646852 68.3501892,21.8559287 68.5009232,22.0069395 C68.6962302,22.2264869 69.0560458,22.444499 69.5826235,22.6655817 C70.1415294,22.8938315 70.7116979,23.0921538 71.2908085,23.2597415 C71.9052743,23.4388594 72.4949512,23.592389 73.0598391,23.7203304 C73.624727,23.8482718 74.0534008,23.952416 74.3458605,24.0327632 C75.1384322,24.2439877 75.9192899,24.4987044 76.6850374,24.7958056 C77.3979819,25.0691951 78.0632595,25.4579838 78.6553845,25.9472779 C79.2318065,26.4275102 79.7010271,27.0282025 80.0315476,27.7090306 C80.3703301,28.4068229 80.5423505,29.2527712 80.5423505,30.2491786 C80.5423505,31.5019805 80.2892026,32.561591 79.7829068,33.4280099 Z" id="Path" fill="#0075BF" fill-rule="nonzero"></path>
                <polygon id="Path" fill="#A61B19" fill-rule="nonzero" points="82.7996486 14.0640833 84.7166619 14.9783523 86.1476612 13.4108146 85.8937621 15.5395032 87.8047659 16.449934 85.735263 16.8606258 85.477608 18.9992938 84.4544998 17.1124144 82.394011 17.5238739 83.8272639 15.9540332"></polygon>
                <path d="M8.41322433,23.1492001 C8.73446186,24.4828367 9.29174782,25.745161 10.057559,26.8738293 C10.7962543,27.9538207 11.7713444,28.842781 12.9052852,29.4700157 C14.0520878,30.1133049 15.4530399,30.4354613 17.1081414,30.4364872 C18.763243,30.4375083 20.1641951,30.1156078 21.3109977,29.4707833 C22.4439539,28.8417802 23.4187313,27.9528422 24.1587239,26.8738293 C24.9233449,25.744473 25.4805287,24.4823801 25.8030585,23.1492001 C26.1561772,21.7250401 26.3328357,20.2611901 26.3289499,18.7920287 C26.3310772,17.2980264 26.1621646,15.8088951 25.825594,14.355022 C25.4920697,12.9077492 24.9602337,11.6326854 24.2300861,10.5298308 C23.4958922,9.42671181 22.5207128,8.5132008 21.3816087,7.86148555 C20.2167777,7.18646687 18.7922887,6.847934 17.1081414,6.84587771 C15.4239942,6.84383988 13.9992547,7.18237275 12.833923,7.86148555 C11.6952426,8.51311564 10.7215517,9.4279707 9.99070389,10.5329014 C9.25654991,11.6347325 8.72296119,12.9087727 8.38993772,14.355022 C8.05431653,15.8090504 7.88566553,17.2980976 7.88733299,18.7920287 C7.88344719,20.2611901 8.06010565,21.7250401 8.41322433,23.1492001 L8.41322433,23.1492001 Z" id="Path"></path>
                <path d="M8.11275203,23.2267326 C8.05190639,22.9795499 7.99932374,22.7300642 7.95049699,22.4813461 C8.00157728,22.736973 8.05566229,22.9910646 8.11275203,23.2267326 Z" id="Path"></path>
                <path d="M24.1129019,7.42047164 C24.1629806,7.42047164 24.2130593,7.42047164 24.263138,7.43121872 C24.2105554,7.42814813 24.1604766,7.42200694 24.1129019,7.42047164 Z" id="Path"></path>
                <path d="M21.5679015,7.61107413 C21.5558968,7.61191734 21.5438496,7.61191734 21.5318448,7.61107413 L21.5318448,7.61107413 L21.5679015,7.61107413 Z" id="Path"></path>
                <path d="M24.1316814,9.86658274 C24.2541238,10.0254859 24.371308,10.1882273 24.4839852,10.35711 C25.2351659,11.4932293 25.784279,12.8059078 26.1253151,14.285166 C26.4660181,15.7621298 26.6374378,17.2745822 26.636118,18.7920287 C26.6403116,20.2873217 26.4606238,21.7772272 26.1012773,23.2267326 C25.7701728,24.5965196 25.1982476,25.8934189 24.4133742,27.0542267 C23.6463013,28.1726421 22.635757,29.0939239 21.4612338,29.7456014 C20.2593447,30.4188289 18.8073123,30.7504529 17.1156532,30.7504529 L17.1111462,30.7504529 C15.4157312,30.7504529 13.9636988,30.4195965 12.7595561,29.7456014 C11.584463,29.095052 10.573931,28.1735468 9.80816697,27.0542267 C9.11260521,26.0330377 8.58578483,24.9020989 8.24871574,23.7065127 C6.89959513,26.0639605 4.30877274,29.0877268 3.38031335,29.8331133 C3.81669117,30.4983706 4.30051339,31.1298126 4.82783864,31.7222956 C6.28012141,33.3543157 8.04314261,34.6350089 10.1169023,35.564375 C12.1906619,36.4937411 14.5220765,36.9579124 17.1111462,36.9568906 C19.7027197,36.9568906 22.0341344,36.4927176 24.1053901,35.564375 C26.1766458,34.6360324 27.9389158,33.3553392 29.3922001,31.7222956 C30.8444829,30.093346 31.9624902,28.1767843 32.7462222,25.9726103 C33.5299541,23.7684364 33.9213192,21.3749092 33.9203196,18.7920287 C33.9203196,16.2071013 33.5367147,13.7877299 32.7695088,11.5339147 C32.7387103,11.4440999 32.7049072,11.3596586 32.6726064,11.271379 C30.7931522,10.5659103 27.4398814,9.39064083 24.1316814,9.86658274 Z" id="Path" fill="#A61B19" fill-rule="nonzero"></path>
                <path d="M0.169766848,19.3942488 L0.169766848,19.3942488 C0.229651187,19.3389781 0.280080104,19.2898486 0.320002997,19.2514662 L0.169766848,19.3942488 Z" id="Path" fill="#FFFFFF" fill-rule="nonzero"></path>
                <path d="M15.6027752,4.68265422 L15.5381737,4.7125925 C15.3623974,4.78935732 15.1866211,4.88377806 15.0123472,4.9720576 C14.799763,5.08029601 14.5864277,5.1931403 14.3745947,5.31135812 C14.1830436,5.41882888 13.9929949,5.52322904 13.8029462,5.63991157 C12.4508208,6.47511284 11.1234844,7.55903215 9.80065516,8.89166948 C8.2231756,10.5037308 6.83198886,12.2777658 5.4806147,13.9581478 C5.4806147,13.9735008 5.4806147,13.9880861 5.4806147,14.0034391 L5.46258637,13.979642 C3.78670213,16.0599687 2.1649029,17.9813922 0.307232924,19.2311235 C0.320002997,19.9220069 0.362820299,20.5936991 0.431177747,21.2538766 C3.46519677,19.572727 5.80662715,16.017748 8.57623055,12.6562164 C8.87216836,11.8450251 9.26017396,11.0720982 9.73229771,10.3532717 C10.4914753,9.2092545 11.5022559,8.26280992 12.6836869,7.58973808 C13.474684,7.14068228 14.3361195,6.83572635 15.2294384,6.68851905 C19.770326,4.15527988 24.7070858,4.44545092 30.7360625,7.35407007 C30.5955917,7.14143151 30.4498626,6.93339884 30.3011288,6.72920441 C30.2921147,6.71692204 30.2831005,6.70463967 30.2748375,6.69158965 C30.1246014,6.48688345 29.9686062,6.28396843 29.8068519,6.0828446 C29.7715464,6.03908865 29.7377433,5.99302975 29.7016866,5.94850616 C24.3232325,3.23256671 19.8093874,2.80191605 15.6027752,4.68265422 Z" id="Path" fill="#FFFFFF" fill-rule="nonzero"></path>
                <path d="M7.58692551,18.9232966 C7.58692551,18.8795406 7.58241842,18.8365523 7.58241842,18.7920287 C7.58451333,17.8902884 7.64725961,16.9897617 7.77021361,16.0968158 C6.62240943,17.5261768 5.50690603,18.9455584 4.38389082,20.2267633 C3.21129768,21.5709153 2.04471398,22.6793994 0.760946093,23.4132711 C0.924310578,24.2041753 1.1368245,24.983638 1.39719618,25.7469217 C3.62594945,24.3958608 5.46709345,21.8012098 7.58692551,18.9232966 Z" id="Path" fill="#FFFFFF" fill-rule="nonzero"></path>
                <path d="M19.2783026,6.75069856 C20.0571728,6.9064761 20.8077348,7.18459059 21.5033,7.57515276 C21.5093023,7.57557437 21.5153259,7.57557437 21.5213283,7.57515276 C22.3758285,7.41547155 23.2448381,7.35163419 24.1129019,7.384776 C24.1579727,7.384776 24.2030436,7.384776 24.2481144,7.39014954 C24.5260513,7.40243191 24.8062417,7.42162312 25.0931927,7.4484908 C27.251335,7.65575583 29.5439386,8.32898333 31.8741013,9.35532901 C31.7171045,9.03138146 31.5510936,8.71357509 31.3768197,8.4049805 C26.7833494,6.3423097 22.883219,5.74507937 19.2783026,6.75069856 Z" id="Path" fill="#FFFFFF" fill-rule="nonzero"></path>
                <path d="M15.227936,6.690822 C15.8485248,6.58529828 16.4767756,6.53393642 17.1058879,6.53729235 C17.8345667,6.53368215 18.5617092,6.60595849 19.2760491,6.7530015 C22.8817166,5.74738232 26.7810959,6.34461264 31.370059,8.40728345 C31.1697442,8.0490476 30.9564088,7.69951178 30.730053,7.35867596 C24.7055835,4.44775386 19.7688236,4.16065342 15.227936,6.690822 Z" id="Path" fill="#A61B19" fill-rule="nonzero"></path>
                <path d="M4.38013492,20.2267633 C5.50690603,18.9455584 6.61865353,17.5261768 7.76645771,16.0968158 C7.84908759,15.489606 7.95275053,14.8846992 8.09171897,14.285166 C8.21731561,13.7323726 8.37867325,13.1887065 8.57472819,12.6577517 C5.80512479,16.017748 3.46669913,19.572727 0.429675385,21.2554119 C0.503200724,21.9801097 0.613775403,22.7003804 0.760946093,23.4132711 C2.04471398,22.6793994 3.21129768,21.5709153 4.38013492,20.2267633 Z" id="Path" fill="#A61B19" fill-rule="nonzero"></path>
                <path d="M7.76345298,21.3797709 C7.76345298,21.3897504 7.76345298,21.3989621 7.76871125,21.4081739 C7.65184581,20.5851867 7.59110416,19.754893 7.58692551,18.9232966 C5.46709345,21.8012098 3.62594945,24.3958608 1.39719618,25.7446188 C1.42273633,25.8213836 1.44602293,25.8981484 1.47231426,25.9749133 C1.68414723,26.5706083 1.9230227,27.1417386 2.1844336,27.6959806 C4.18708146,26.3502932 5.92982079,24.0020573 7.76345298,21.3797709 Z" id="Path" fill="#A61B19" fill-rule="nonzero"></path>
                <path d="M3.557592,8.84484294 C3.80498086,8.79110756 4.05161854,8.73071924 4.29750503,8.66367796 C4.44774118,8.84023705 4.59797733,9.02140203 4.74821348,9.20103172 C4.73844813,8.98455492 4.73093632,8.76807812 4.72192215,8.55390426 C4.9698118,8.48788651 5.21394554,8.41956582 5.45958164,8.34587159 C5.21394554,8.2952068 4.96680708,8.23840084 4.71591271,8.17929192 C4.71591271,7.96127982 4.7241757,7.74480302 4.72567806,7.52602328 C4.57544191,7.7110265 4.42520576,7.89065619 4.28473496,8.06337704 C4.03233823,7.9927534 3.77843914,7.91598858 3.52078414,7.84075905 C3.69130217,8.01040931 3.85956666,8.1869684 4.02257288,8.35892161 C3.86858083,8.52550127 3.71158405,8.6882427 3.557592,8.84484294 Z" id="Path" fill="#FFFFFF" fill-rule="nonzero"></path>
                <path d="M1.53391108,11.703565 C1.78931253,11.703565 2.03870454,11.703565 2.29035009,11.685909 C2.45010119,11.8793564 2.6096019,12.0738273 2.76885222,12.2693217 C2.7500727,12.0705008 2.73429791,11.8686093 2.71551839,11.6690208 C2.96415921,11.6590414 3.21355122,11.644456 3.45918732,11.6214266 C3.20829296,11.5277735 2.95514504,11.4264439 2.69448533,11.3266497 C2.69448533,11.1278288 2.68547116,10.9290079 2.68246644,10.7286517 C2.53974209,10.8706666 2.39776893,11.0103786 2.25654695,11.1401112 C2.01015967,11.0326404 1.76001648,10.924402 1.50987329,10.813093 C1.50987329,10.8184665 1.50611739,10.8238401 1.50386385,10.8299813 C1.67137715,11.0050051 1.83663692,11.1838671 2.0011455,11.3596586 C1.84640227,11.4794117 1.69090785,11.5914883 1.53391108,11.703565 Z" id="Path" fill="#FFFFFF" fill-rule="nonzero"></path>
                <path d="M0.50554464,15.7682624 C0.753434286,15.7682624 0.997568027,15.7682624 1.24245295,15.7552123 C1.40020091,15.9486597 1.55719768,16.1426188 1.71344328,16.3370897 C1.69391258,16.1405717 1.67588424,15.9386803 1.65710472,15.7398594 C1.8997361,15.7314152 2.14311866,15.7175976 2.38124296,15.6961034 C2.13635803,15.600915 1.88771721,15.4995855 1.63006221,15.3997912 C1.63006221,15.2009703 1.6187945,15.0021494 1.61428742,14.8033285 C1.47531898,14.9438081 1.33860408,15.0819848 1.20264037,15.2117174 C0.947238918,15.0965701 0.690335103,14.9814229 0.43418247,14.8647404 C0.609207583,15.0505113 0.783481515,15.2424233 0.953248364,15.4289618 C0.806768119,15.5456444 0.657283151,15.660024 0.50554464,15.7682624 Z" id="Path" fill="#FFFFFF" fill-rule="nonzero"></path>
                <path d="M7.86185766,2.85641907 C8.14279926,2.75585716 8.42374086,2.65606289 8.70768718,2.55780391 C8.84515325,2.71133356 8.97886343,2.87023674 9.10581297,3.02376639 C9.13736256,2.81343077 9.16665861,2.60386281 9.19895939,2.39659778 C9.48440807,2.30831824 9.7758662,2.22080634 10.0643196,2.13559738 C9.80140634,2.1056591 9.53849308,2.07188258 9.26581447,2.040409 C9.29060344,1.92833236 9.31839712,1.81702337 9.34619081,1.70417908 C9.02393427,1.87229404 8.706936,2.04578254 8.39970307,2.23232106 L8.46355344,2.29450057 C8.25848109,2.48103909 8.05791584,2.66757761 7.86185766,2.85641907 Z" id="Path" fill="#FFFFFF" fill-rule="nonzero"></path>
                <path d="M14.4159096,1.01406332 C14.5203238,1.15300765 14.6224844,1.29195198 14.7231426,1.42552277 C14.8020166,1.26815488 14.8869,1.11308994 14.9732858,0.959560291 C15.2992982,0.936530844 15.6283154,0.921945528 15.9498207,0.910430804 C15.6771421,0.840574815 15.4037123,0.769951178 15.1287802,0.701630485 C15.2331943,0.548100838 15.3308478,0.406853563 15.4390178,0.263303344 C15.1761046,0.35900349 14.9176984,0.46340365 14.6637993,0.576503823 C14.3956278,0.499739 14.1289586,0.429115362 13.8540265,0.360027021 C13.9772201,0.498971351 14.0996626,0.640218626 14.2228562,0.775324715 C13.9624469,0.894566074 13.7035399,1.01994862 13.4461353,1.15147235 C13.769143,1.09850462 14.0913996,1.05398102 14.4159096,1.01406332 Z" id="Path" fill="#FFFFFF" fill-rule="nonzero"></path>
                <path d="M23.2512976,1.66502902 C23.3204062,1.77633801 23.3872613,1.88611171 23.4556187,1.99358246 C23.5622864,1.94138238 23.668954,1.8907176 23.7756217,1.84389106 C24.076094,1.9528971 24.3765663,2.07418553 24.6725315,2.20007984 C24.4421694,2.05473844 24.2080514,1.9114441 23.9701775,1.77019683 C24.0903664,1.73258206 24.2105554,1.69803789 24.3345002,1.66733196 C24.0806011,1.61206129 23.8236973,1.56523475 23.5660423,1.52838763 C23.3331763,1.38867565 23.1033149,1.25126662 22.8636883,1.11308994 C22.9500741,1.23514601 23.0364599,1.35413148 23.1213433,1.47004637 C22.8561765,1.43780514 22.5895073,1.41477569 22.3265941,1.40479627 C22.6345782,1.48079344 22.9470694,1.57060828 23.2512976,1.66502902 Z" id="Path" fill="#FFFFFF" fill-rule="nonzero"></path>
                <path d="M7.44570353,5.70132343 C7.59068141,5.86560015 7.73415694,6.03294746 7.87312537,6.19952713 C7.87763246,5.97921209 7.88213954,5.75889704 7.88965135,5.54088494 C8.14880871,5.44953481 8.40871724,5.35434642 8.66937696,5.26222864 C8.41773141,5.22998741 8.16683704,5.19544324 7.90993323,5.16089907 C7.92871275,4.94211932 7.95124817,4.72257193 7.97303241,4.50379218 C7.80101202,4.69954248 7.63500108,4.89375748 7.47274604,5.09027543 C7.21734458,5.04370477 6.9594392,4.99252822 6.69902987,4.93674579 C6.86203609,5.09564897 7.02429113,5.2568551 7.18203909,5.41575828 C7.0100187,5.60459975 6.83950067,5.79344121 6.67424091,5.97921209 C6.93039354,5.89323548 7.18579499,5.7995824 7.44570353,5.70132343 Z" id="Path" fill="#FFFFFF" fill-rule="nonzero"></path>
                <path d="M12.4876287,3.60794669 C12.5995546,3.74842632 12.7077246,3.88276476 12.8128899,4.0186385 C12.8639702,3.82519114 12.9135482,3.63481438 12.9631261,3.44366997 C13.2418141,3.35385513 13.5220046,3.26557558 13.8089556,3.18266957 C13.5618171,3.16117542 13.3101716,3.13737833 13.0652867,3.11741947 C13.1351465,2.92550742 13.2004992,2.73896889 13.2726126,2.55243037 C13.0592772,2.71901004 12.8549561,2.88942795 12.6483814,3.06905764 C12.4027453,3.03451346 12.1571092,3.00457518 11.9092195,2.96926336 C12.0391738,3.10744005 12.1616162,3.24177849 12.2885658,3.37381398 C12.0789864,3.55190837 11.8701581,3.73307336 11.6688417,3.91884423 C11.9437738,3.81214112 12.2141989,3.70774096 12.4876287,3.60794669 Z" id="Path" fill="#FFFFFF" fill-rule="nonzero"></path>
                <path d="M19.292575,2.22617988 C19.3752049,2.33902417 19.4518254,2.45110081 19.5322017,2.5608745 C19.6238457,2.44572727 19.716241,2.33058004 19.807885,2.22464458 C20.1143668,2.23308871 20.4140879,2.24613873 20.7168137,2.26993582 C20.4741823,2.193171 20.231551,2.11640618 19.9844125,2.03964135 C20.0963384,1.93600884 20.2045085,1.83467928 20.3134297,1.73872325 C20.0647888,1.78631744 19.8146457,1.84389106 19.5690095,1.91067645 C19.33389,1.83391163 19.0897562,1.75714681 18.8486272,1.68498787 C18.9455295,1.8016704 19.0484413,1.91528234 19.1400853,2.02966193 C18.8876886,2.10105321 18.6375454,2.18319157 18.3889046,2.27377407 C18.6916304,2.24920932 18.9913516,2.23155341 19.292575,2.22617988 Z" id="Path" fill="#FFFFFF" fill-rule="nonzero"></path>
                <path d="M26.1869119,3.69929683 C26.2409969,3.78987933 26.2965843,3.88046182 26.3484158,3.96720607 C26.449074,3.9518531 26.5519857,3.93957073 26.652644,3.92882366 C26.9260738,4.07007093 27.1897382,4.21669174 27.4481444,4.37022139 C27.2483303,4.21669174 27.0462627,4.06930328 26.839688,3.92191482 C26.9531163,3.92191482 27.0650422,3.92191482 27.1784705,3.9295913 C26.9531163,3.83440292 26.7217526,3.74842632 26.4881354,3.66935855 C26.2853166,3.52350539 26.0809954,3.38072282 25.8721672,3.2371726 C25.942027,3.33850216 26.0111356,3.43829644 26.0824978,3.53732306 C25.8376129,3.46055823 25.5927279,3.39377284 25.347843,3.33696687 C25.6310381,3.44981116 25.9157357,3.57109958 26.1869119,3.69929683 Z" id="Path" fill="#FFFFFF" fill-rule="nonzero"></path>
                <path d="M10.065822,6.73841619 C10.1825054,6.88222229 10.2966848,7.02781957 10.4083604,7.17520803 C10.4339005,6.95719593 10.4624454,6.74302208 10.4887367,6.52808057 C10.7373775,6.41293334 10.9837648,6.2977861 11.2346592,6.17726533 C11.009305,6.17726533 10.7839508,6.16575061 10.5473288,6.16191237 C10.5878926,5.94466792 10.6292075,5.732797 10.6742784,5.5178555 C10.4969997,5.72128228 10.3212234,5.92777965 10.1537101,6.13581233 C9.92459998,6.11355053 9.69398749,6.08975343 9.46562855,6.0590475 C9.59408046,6.20413302 9.72779063,6.34614794 9.85474017,6.48585992 C9.68046624,6.690822 9.50694349,6.89885467 9.3349231,7.10535204 C9.57454976,6.98559892 9.81943468,6.85970461 10.065822,6.73841619 Z" id="Path" fill="#FFFFFF" fill-rule="nonzero"></path>
                <path d="M15.91752,3.82826174 C15.9858774,3.66628796 16.0579908,3.50661713 16.1308553,3.34771394 C16.4125481,3.27094912 16.6957432,3.20416372 16.9781872,3.14044892 C16.7438188,3.11818712 16.5071968,3.09976356 16.2690725,3.07903706 C16.3577119,2.92550742 16.4456,2.77197777 16.541,2.61844812 C16.3121402,2.75304245 16.0885388,2.89377796 15.8701956,3.04065465 L15.1798605,2.96388983 C15.2850258,3.07903706 15.3901911,3.1941843 15.4931028,3.3008874 C15.2677486,3.45441705 15.0423944,3.61255258 14.832815,3.7783646 C15.1069959,3.67933798 15.377421,3.5841496 15.6546067,3.4951024 C15.7447484,3.60180551 15.8333877,3.71772039 15.91752,3.82826174 Z" id="Path" fill="#FFFFFF" fill-rule="nonzero"></path>
                <path d="M23.0612488,3.55497897 C23.1614063,3.48793769 23.2615637,3.42345524 23.3617211,3.36153161 C23.6509257,3.41373169 23.9386279,3.4759112 24.2203207,3.54576719 C23.9949665,3.44904351 23.7741194,3.35462278 23.5510187,3.26327264 C23.6651981,3.20953726 23.7763729,3.15887248 23.8928059,3.10974299 C23.6509257,3.09976356 23.4097967,3.09669297 23.1649118,3.1051371 C22.9478205,3.01378696 22.7277246,2.92397212 22.5061263,2.83799552 C22.5850002,2.9331839 22.6653766,3.03067522 22.7434994,3.12356066 C22.492605,3.13814598 22.2447154,3.16424602 21.9968257,3.20032548 C22.2897862,3.21951669 22.5789908,3.24791967 22.8719513,3.28706973 C22.9320457,3.37765222 22.9966473,3.46593177 23.0612488,3.55497897 Z" id="Path" fill="#FFFFFF" fill-rule="nonzero"></path>
                <path d="M7.86936947,8.64755734 C7.71913332,8.85635766 7.57640898,9.06746093 7.435187,9.2739583 C7.21509104,9.23480824 6.99274154,9.19719348 6.76513378,9.14883164 C6.9086093,9.30927012 7.04757774,9.46663801 7.18579499,9.6240059 C7.03555884,9.82436208 6.88532269,10.0216477 6.74184717,10.217398 C6.9672014,10.1176037 7.18804853,10.010133 7.4119004,9.89805631 C7.53509404,10.0638683 7.65979004,10.2258421 7.78073014,10.3885835 C7.78598841,10.1582891 7.78899313,9.93643873 7.79350021,9.71151779 C8.01885444,9.60327939 8.24420866,9.4919704 8.46956288,9.37452022 C8.25322283,9.3630055 8.03312687,9.34688488 7.81227973,9.32308779 C7.82880571,9.09970215 7.84758523,8.87094298 7.86936947,8.64755734 Z" id="Path" fill="#FFFFFF" fill-rule="nonzero"></path>
                <path d="M5.48361943,13.9581478 C5.48361943,13.7485799 5.48361943,13.5382442 5.48361943,13.3279086 C5.70371539,13.2181349 5.91855308,13.1029877 6.1401514,12.9832346 C5.92756725,12.9755581 5.71197837,12.9609728 5.4963895,12.9410139 C5.50915957,12.7183959 5.52343201,12.4896367 5.54070916,12.2670188 C5.398736,12.4773544 5.26126993,12.6899929 5.12605739,12.8980256 C4.9112197,12.8627138 4.69337729,12.8212608 4.46877424,12.7813431 C4.61149858,12.9402463 4.75046702,13.0953112 4.88718192,13.2496085 C4.74145285,13.4515 4.60173323,13.6503209 4.46201362,13.8468388 C4.68135839,13.743974 4.89469372,13.6349679 5.11253614,13.519053 C5.22972034,13.6725827 5.34765571,13.8261123 5.46183519,13.979642 L5.47986352,14.0034391 C5.48361943,13.9880861 5.47911234,13.9711978 5.48361943,13.9581478 Z" id="Path" fill="#FFFFFF" fill-rule="nonzero"></path>
                <path d="M7.76645771,16.0968158 C7.64350371,16.9897617 7.58075743,17.8902884 7.57866252,18.7920287 C7.57866252,18.8365523 7.57866252,18.8795406 7.58316961,18.9232966 C7.58859214,19.7549822 7.65058882,20.5852764 7.76871125,21.4081739 C7.77321833,21.4457887 7.78073014,21.4849387 7.78598841,21.5248564 C7.82054272,21.7551509 7.86110648,21.9892836 7.90167024,22.2203457 C7.91744504,22.3078576 7.93472219,22.3938342 7.95199935,22.4813461 C8.0008261,22.7300642 8.05340875,22.9795499 8.11425439,23.2267326 C8.15556933,23.3879387 8.19838663,23.5476095 8.24571102,23.7065127 C8.58278011,24.9020989 9.10960048,26.0330377 9.80516225,27.0542267 C10.5709263,28.1735468 11.5814583,29.095052 12.7565514,29.7456014 C13.9584406,30.4195965 15.4127265,30.7512206 17.1081414,30.7504542 L17.1126485,30.7504542 C18.8043076,30.7504542 20.2555887,30.4188289 21.4582291,29.7456014 C22.6338436,29.0943115 23.6454473,28.1730016 24.4133742,27.0542267 C25.1993074,25.8936434 25.7722564,24.5967312 26.104282,23.2267326 C26.4636285,21.7772272 26.6433163,20.2873217 26.6391944,18.7920287 C26.6404425,17.2745822 26.4690228,15.7621298 26.1283198,14.285166 C25.7872837,12.8059078 25.239673,11.4932293 24.4869899,10.35711 C24.3743128,10.1882273 24.2571286,10.0254859 24.1346861,9.86658274 C23.8128872,9.446022 23.4535288,9.05694165 23.0612488,8.70436331 C22.5912511,8.28056374 22.0794558,7.90779017 21.5340984,7.59204102 C21.524333,7.58589984 21.5130653,7.5820616 21.5040511,7.57592041 L21.5040511,7.57592041 C20.808486,7.18535824 20.057924,6.90724375 19.2790538,6.75146621 C18.564714,6.60442319 17.8375715,6.53214686 17.1088926,6.53560267 C16.4797803,6.53240112 15.8515296,6.58376298 15.2309408,6.6892867 C14.3364926,6.83662836 13.474008,7.14211525 12.6821845,7.59204102 C11.5007535,8.26511287 10.4899729,9.21155745 9.73079535,10.3555747 C9.2586716,11.0744012 8.870666,11.8473281 8.57472819,12.6585194 C8.37867325,13.1894742 8.21731561,13.7331402 8.09171897,14.2859336 C7.95275053,14.8846992 7.84908759,15.489606 7.76645771,16.0968158 Z M9.99070389,10.5329014 C10.7229761,9.42864124 11.6979634,8.51482822 12.8376789,7.86455615 C14.0015083,7.18953747 15.4262477,6.8510046 17.1118973,6.84894831 C18.7975469,6.84691047 20.222036,7.18544334 21.3853646,7.86455615 C22.5244687,8.51627139 23.4996481,9.4297824 24.233842,10.5329014 C24.9594826,11.6347325 25.4900666,12.9087727 25.825594,14.355022 C26.1621847,15.8078653 26.3313479,17.2959525 26.3297011,18.7889581 C26.3335869,20.2581195 26.1569284,21.7219695 25.8038097,23.1461295 C25.4812799,24.4793095 24.9240961,25.7414024 24.1594751,26.8707587 C23.4194824,27.9497716 22.4447051,28.8387096 21.3117489,29.4677127 C20.1624423,30.1099784 18.7614902,30.4318789 17.1088926,30.4334197 C15.456295,30.4349495 14.0550925,30.1138166 12.9052852,29.4700157 C11.7710715,28.8428785 10.7957164,27.953911 10.0568078,26.8738293 C9.29126168,25.7451045 8.73423174,24.4827834 8.41322433,23.1492001 C8.06010565,21.7250401 7.88344719,20.2611901 7.88733299,18.7920287 C7.88566553,17.2980976 8.05431653,15.8090504 8.38993772,14.355022 C8.72346197,12.9082609 9.2570507,11.6342207 9.99070389,10.5329014 Z" id="Shape" fill="#A61E22" fill-rule="nonzero"></path>
                <path d="M8.24571102,23.7065127 C8.19838663,23.5476095 8.15556933,23.3879387 8.11425439,23.2267326 C8.05566229,22.9910646 8.00157728,22.736973 7.95199935,22.4813461 C7.93472219,22.3938342 7.91744504,22.3078576 7.90167024,22.2203457 C7.85960412,21.9900513 7.82054272,21.7597568 7.78598841,21.5248564 C7.78073014,21.4872417 7.77321833,21.4480916 7.76871125,21.4081739 C7.76871125,21.3989621 7.76871125,21.3897504 7.76345298,21.3797709 C5.92982079,24.0020573 4.18708146,26.3502932 2.18518478,27.6936776 L2.17316589,27.7013541 C2.5282898,28.4377392 2.92976165,29.1498193 3.37505508,29.8331133 C4.30877274,29.0877268 6.89959513,26.0639605 8.24571102,23.7065127 Z" id="Path" fill="#FFFFFF" fill-rule="nonzero"></path>
                <path d="M33.0557086,11.4310498 C32.4392439,9.58120063 31.5319491,7.84635937 30.3694863,6.29471551 C30.3664803,6.2908043 30.3637204,6.28670191 30.3612233,6.28243314 C30.3256592,6.26866315 30.291243,6.25197638 30.2583115,6.232536 C30.1711746,6.18417416 29.6911701,5.93775908 29.7001842,5.94744375 C29.7362409,5.99226211 29.770044,6.038321 29.8053495,6.08207695 C29.966603,6.28320079 30.1223478,6.48713933 30.272584,6.69389259 C30.280847,6.70694261 30.2898611,6.71922498 30.2988753,6.73150735 C30.4491114,6.93570178 30.5933381,7.14373446 30.7338089,7.35637302 C30.9586624,7.69669707 31.1719977,8.04623289 31.3738149,8.4049805 C31.5480889,8.71203979 31.7140998,9.03138146 31.8710966,9.35532901 C32.0368571,9.69770013 32.1931027,10.0490271 32.3398334,10.40931 C32.454764,10.6918046 32.5651876,10.9781374 32.6688505,11.271379 C32.7011513,11.3596586 32.7349544,11.4440999 32.7657529,11.5339147 C33.5314564,13.7856828 33.9150594,16.2050542 33.9165618,18.7920287 C33.9180641,21.3790033 33.5266989,23.7725305 32.7424662,25.9726103 C31.9582336,28.1767843 30.8402262,30.093346 29.3884442,31.7222956 C27.9366622,33.3512451 26.1743922,34.6319383 24.1016342,35.564375 C22.0288761,36.491694 19.6974615,36.9558653 17.1073903,36.9568889 C14.517319,36.9579124 12.1859044,36.4937411 10.1131463,35.564375 C8.03738356,34.6334736 6.27461275,33.3527804 4.82483392,31.7222956 C4.2985438,31.129707 3.81572795,30.4982677 3.38031335,29.8331133 C2.93501991,29.1498193 2.53354806,28.4377392 2.17842416,27.7013541 L2.19044305,27.6936776 C1.92978333,27.1394356 1.69015667,26.5683053 1.4783237,25.9726103 C1.4512812,25.8958455 1.42799459,25.8190807 1.40320563,25.7423158 C1.14098369,24.9806785 0.926463548,24.2027578 0.760946093,23.4132711 C0.613801248,22.7006337 0.503226673,21.9806199 0.429675385,21.2561796 C0.361317938,20.5960021 0.318500635,19.9220069 0.305730563,19.2334265 L0.305730563,19.2334265 L0.277185694,19.2533853 C0.248640826,19.2725765 0.21258415,19.2971413 0.169766848,19.3247766 C0.110423569,19.3646943 0.0443196639,19.4061473 0.00225354223,19.433015 C0.0613464274,21.8070951 0.455215531,24.0235514 1.18386085,26.082384 C1.98011244,28.319311 3.11815127,30.2699051 4.59797733,31.9341665 C6.0778034,33.5984279 7.87537891,34.9034299 9.99070389,35.8491725 C12.1070304,36.7959386 14.47976,37.2688099 17.1088926,37.2677881 L17.1141509,37.2677881 C19.7402788,37.2677881 22.1107548,36.7949151 24.225579,35.8491725 C26.3404032,34.9034299 28.1379787,33.5984279 29.6183055,31.9341665 C31.0981316,30.2739992 32.2364208,28.3223816 33.0331732,26.0793134 C33.8299256,23.8362453 34.2267994,21.4071504 34.2238116,18.7920287 C34.2238116,16.1753718 33.8344327,13.7217122 33.0557086,11.4310498 Z" id="Path" fill="#A61E22" fill-rule="nonzero"></path>
                <path d="M0.305730563,19.2295882 L0.305730563,19.2295882 C2.16340054,17.9798569 3.78519977,16.0584334 5.46108401,13.9781067 C5.34690453,13.824577 5.22896916,13.6710474 5.11178496,13.5175177 C4.89394254,13.6334326 4.68060721,13.7424387 4.46126244,13.8453035 C4.60098205,13.6487856 4.74070167,13.4499647 4.88643074,13.2480732 C4.74971584,13.0945436 4.6107474,12.9410139 4.46802306,12.7798078 C4.69337729,12.8235637 4.91046852,12.8611785 5.12530621,12.8964903 C5.26051875,12.6884576 5.39798482,12.4758191 5.53995798,12.2654835 C5.52268083,12.4881015 5.50840839,12.7168606 5.49563832,12.9394786 C5.71122719,12.9594375 5.92681607,12.9740228 6.13940022,12.9816993 C5.91404599,13.1014524 5.7029642,13.2165996 5.48286825,13.3263733 C5.48286825,13.5367089 5.48286825,13.7470446 5.48286825,13.9566125 C6.83499359,12.2785335 8.22392678,10.5021955 9.8029087,8.89013418 C11.125738,7.5567292 12.4530744,6.47357755 13.8051997,5.63837627 C13.9952484,5.52169374 14.1852972,5.41729358 14.3768483,5.30982283 C14.5886812,5.191605 14.8020166,5.07952836 15.0146007,4.97052231 C15.1896258,4.88224276 15.3654021,4.79166027 15.5404272,4.71105721 L15.6050288,4.68111892 C19.8116409,2.79807781 24.325486,3.22872847 29.7024378,5.94697086 C29.6934236,5.93699143 30.1734281,6.18340652 30.2605651,6.23176835 C30.2934966,6.25120873 30.3279127,6.2678955 30.3634768,6.28166549 C30.3659739,6.28593426 30.3687338,6.29003665 30.3717398,6.29394786 L30.3769981,6.29394786 C30.2117383,6.07286517 30.3356831,6.20566831 29.3523876,5.04882243 C28.182048,3.68471152 26.3882283,2.32750944 24.4066135,1.41093745 C22.2792697,0.426812417 19.7094803,0 17.0029761,0 C14.2964719,0 12.0451832,0.410691805 9.92835589,1.41093745 C9.73079535,1.50459054 9.5377419,1.60438481 9.34619081,1.70417908 C9.31839712,1.81702337 9.29060344,1.92833236 9.26581447,2.040409 C9.53548836,2.07188258 9.80140634,2.1056591 10.0643196,2.13559738 C9.7758662,2.22080634 9.48440807,2.30831824 9.19895939,2.39659778 C9.16665861,2.60386281 9.13736256,2.81343077 9.10581297,3.02376639 C8.97886343,2.87023674 8.84515325,2.7167071 8.70768718,2.55780391 C8.42374086,2.65606289 8.14279926,2.75585716 7.86185766,2.85641907 C8.05791584,2.66757761 8.25848109,2.48103909 8.46280226,2.29450057 L8.39895189,2.23232106 C6.94463505,3.11258596 5.6432164,4.23319794 4.54764822,5.54856143 C3.25377898,7.11722696 2.22690463,8.89682307 1.50987329,10.813093 C1.76001648,10.924402 2.01015967,11.0326404 2.25654695,11.1401112 C2.39776893,11.0103786 2.53974209,10.8706666 2.68246644,10.7286517 C2.68246644,10.9290079 2.69298297,11.1278288 2.69448533,11.3266497 C2.95514504,11.4264439 3.20829296,11.5277735 3.45918732,11.6214266 C3.21355122,11.644456 2.96415921,11.6590414 2.71551839,11.6690208 C2.73429791,11.8686093 2.7500727,12.0705008 2.76885222,12.2693217 C2.61060348,12.0733155 2.45110277,11.8788446 2.29035009,11.685909 C2.03870454,11.701262 1.78931253,11.7027973 1.53391108,11.703565 C1.69090785,11.5945589 1.84640227,11.4794117 2.0011455,11.3596586 C1.83663692,11.1838671 1.67137715,11.0050051 1.50386385,10.8299813 C1.38818201,11.1370406 1.27850963,11.4440999 1.17484668,11.755765 C0.391615561,14.1349628 0,16.6871373 0,19.4122885 C0,19.4176621 0,19.4245709 0,19.4307121 L0.169015667,19.3201707 L0.276434514,19.2503147 C0.286951044,19.2434059 0.300472297,19.2349618 0.305730563,19.2295882 Z M25.8721672,3.2371726 C26.0809954,3.38072282 26.2853166,3.52350539 26.4881354,3.66935855 C26.7217526,3.74612338 26.9501115,3.83440292 27.1784705,3.9295913 C27.064291,3.92268247 26.9531163,3.92191482 26.839688,3.92191482 C27.0462627,4.06930328 27.2483303,4.21822704 27.4481444,4.37022139 C27.1897382,4.21669174 26.9260738,4.07007093 26.652644,3.92882366 C26.5519857,3.93957073 26.449074,3.9518531 26.3484158,3.96720607 C26.2965843,3.88046182 26.2409969,3.78987933 26.1869119,3.69929683 C25.9127309,3.57109958 25.6310381,3.44981116 25.347843,3.33696687 C25.5927279,3.39377284 25.8376129,3.46132588 26.0824978,3.53732306 C26.0111356,3.43829644 25.942027,3.33850216 25.8721672,3.2371726 Z M22.8636883,1.11308994 C23.1033149,1.25126662 23.3331763,1.38867565 23.5660423,1.52838763 C23.8236973,1.56523475 24.0806011,1.61206129 24.3345002,1.66733196 C24.2105554,1.69803789 24.0903664,1.73258206 23.9701775,1.77019683 C24.2075506,1.91246763 24.4416686,2.05576197 24.6725315,2.20007984 C24.3720592,2.07188258 24.076094,1.9528971 23.7756217,1.84389106 C23.668954,1.8907176 23.5622864,1.94138238 23.4556187,1.99358246 C23.3872613,1.88611171 23.3204062,1.77633801 23.2512976,1.66502902 C22.9508253,1.57060828 22.6345782,1.48079344 22.3265941,1.40479627 C22.5895073,1.41477569 22.8524206,1.43780514 23.1213433,1.47004637 C23.0364599,1.35413148 22.9500741,1.23514601 22.8636883,1.11308994 Z M22.7404946,3.12356066 C22.6653766,3.03067522 22.5819955,2.9331839 22.5031215,2.83799552 C22.7247199,2.92397212 22.9448158,3.01378696 23.161907,3.1051371 C23.406792,3.09669297 23.647921,3.09976356 23.8898012,3.10974299 C23.7771241,3.15887248 23.664447,3.20953726 23.5480139,3.26327264 C23.7733682,3.35462278 23.9949665,3.44904351 24.217316,3.54576719 C23.9356232,3.4759112 23.647921,3.41373169 23.3587164,3.36153161 C23.258559,3.423967 23.1584015,3.48844945 23.0582441,3.55497897 C22.9958961,3.46593177 22.9312946,3.37765222 22.8681954,3.28553444 C22.5752349,3.24638438 22.2860303,3.21798139 21.9930698,3.19879019 C22.2417106,3.16424602 22.4896003,3.13814598 22.7404946,3.12356066 Z M18.8486272,1.68422022 C19.0897562,1.75714681 19.33389,1.83391163 19.5690095,1.9099088 C19.8146457,1.84312341 20.0647888,1.78554979 20.3134297,1.7379556 C20.2045085,1.83391163 20.0963384,1.9352412 19.9844125,2.03887371 C20.231551,2.11563853 20.4741823,2.18779746 20.7168137,2.26916818 C20.4163414,2.24537108 20.1158691,2.23232106 19.807885,2.22387693 C19.716241,2.33211533 19.6238457,2.44495962 19.5322017,2.56010686 C19.4518254,2.45033316 19.3752049,2.33825652 19.292575,2.22541223 C18.9921027,2.23462401 18.6916304,2.25227992 18.3911581,2.27607701 C18.6382966,2.18549452 18.8884398,2.10335616 19.1423389,2.03196487 C19.0484413,1.91912058 18.9455295,1.80090275 18.8486272,1.68422022 Z M15.3841816,0.345441705 C15.6478461,0.412227101 15.9032475,0.480547794 16.1609025,0.552706728 C16.4042851,0.44472421 16.6511731,0.344674057 16.9015667,0.252556269 C16.7979038,0.389965302 16.7040062,0.528909632 16.6010944,0.6732275 C16.8647589,0.739245248 17.126921,0.806798293 17.389083,0.873583689 C17.0780942,0.884330764 16.7618471,0.898148432 16.4493559,0.921177879 C16.366726,1.06779869 16.2855985,1.21672245 16.2097293,1.3671815 C16.1128269,1.23898425 16.0151735,1.1061811 15.9145152,0.972610311 C15.6035264,1.01099272 15.2940399,1.05398102 14.986807,1.10387816 C15.2326935,0.977983849 15.4810839,0.857974842 15.7319783,0.743851138 C15.6193012,0.614118586 15.502117,0.478244849 15.3841816,0.345441705 Z M15.4931028,3.29628151 C15.3901911,3.18650781 15.2850258,3.07443117 15.1798605,2.95928394 L15.8701956,3.03604876 C16.0885388,2.8886603 16.3121402,2.74792479 16.541,2.61384223 C16.4456,2.76737188 16.3577119,2.92090153 16.2690725,3.07443117 C16.5071968,3.09515767 16.7438188,3.11358123 16.9781872,3.13584303 C16.6957432,3.19955783 16.4125481,3.26787853 16.1308553,3.34310805 C16.0557372,3.50201124 15.9858774,3.66168207 15.91752,3.82365585 C15.8333877,3.7131145 15.7447484,3.59719962 15.6546067,3.48589063 C15.377421,3.57493782 15.1069959,3.6701262 14.832815,3.76915282 C15.0453991,3.60794669 15.2669974,3.44981116 15.4931028,3.29628151 Z M11.9107219,2.96849572 C12.1586115,3.00380754 12.4042476,3.03374582 12.6498837,3.06828999 C12.8564584,2.8886603 13.0607796,2.71824239 13.2741149,2.55166273 C13.1989968,2.73820125 13.1366488,2.92473977 13.066789,3.11665183 C13.311674,3.13661068 13.5633195,3.16040777 13.810458,3.18190193 C13.5235069,3.26480793 13.2433165,3.35308748 12.9646285,3.44290232 C12.9135482,3.63097614 12.8639702,3.82672644 12.8143923,4.01787085 C12.709227,3.88199711 12.601057,3.74765867 12.489131,3.60717905 C12.2157013,3.70774096 11.9422715,3.81214112 11.6718464,3.91423834 C11.8731628,3.72846747 12.0819911,3.54730248 12.2915705,3.36920809 C12.1631186,3.24101084 12.0406761,3.1066724 11.9107219,2.96849572 Z M9.46487737,6.06442104 C9.69023159,6.09205638 9.9238488,6.11585347 10.1529589,6.14118586 C10.3204722,5.93315319 10.4962485,5.72665582 10.6735272,5.52322904 C10.6284563,5.73817054 10.5871414,5.95004145 10.5465776,6.1672859 C10.7801949,6.1672859 11.0070514,6.17956827 11.233908,6.18263887 C10.9830137,6.30162434 10.7366264,6.41830688 10.4879855,6.53345411 C10.4616942,6.74839562 10.4331493,6.96256947 10.4076092,7.18058157 C10.2959337,7.03319311 10.1817542,6.88759583 10.0650708,6.74378973 C9.8224394,6.86507815 9.57755448,6.98866951 9.33417192,7.11379617 C9.50619231,6.9072988 9.67971506,6.69926613 9.85398899,6.49430405 C9.72403472,6.34921853 9.59032455,6.20720361 9.46487737,6.06442104 Z M7.79650494,9.71382074 C7.79199785,9.93874167 7.78899313,10.1644303 7.78373486,10.3908865 C7.66279476,10.2281451 7.53809876,10.0661713 7.41490512,9.90035926 C7.1895509,10.0124359 6.97020612,10.1199067 6.7448519,10.2197009 C6.88982978,10.0239506 7.03631002,9.82666503 7.18879972,9.62630884 C7.05058246,9.46894095 6.91161402,9.31157306 6.7681385,9.15113458 C6.99349272,9.19719348 7.21884695,9.23711119 7.43819172,9.27626125 C7.5794137,9.06976387 7.7236404,8.85866061 7.87237419,8.64986029 C7.85058995,8.87324592 7.83181043,9.1020051 7.81528446,9.32539073 C8.03613159,9.34918783 8.25622755,9.36530844 8.47256761,9.37682316 C8.2427063,9.4919704 8.02110798,9.60327939 7.79350021,9.71151779 L7.79650494,9.71382074 Z M6.69902987,4.94058403 C6.95893841,4.99176058 7.2168438,5.04293712 7.47274604,5.09411367 C7.63500108,4.89759573 7.80101202,4.70338072 7.97303241,4.50763042 C7.95124817,4.72641017 7.92871275,4.94595756 7.90993323,5.16473731 C8.16683704,5.19928148 8.41773141,5.23382565 8.66937696,5.26606688 C8.40871724,5.35818467 8.14880871,5.45337305 7.88965135,5.54472319 C7.88213954,5.76273528 7.87763246,5.98305033 7.87312537,6.20336537 C7.73415694,6.0367857 7.59068141,5.86943839 7.44570353,5.70516167 C7.18579499,5.80342064 6.93039354,5.89707372 6.67424091,5.98688857 C6.83950067,5.8011177 7.0100187,5.61227623 7.18203909,5.42343477 C7.02429113,5.26069334 6.86203609,5.09948721 6.69902987,4.94058403 Z M4.28548614,8.06030645 C4.42971284,7.884515 4.57844663,7.70488531 4.72642924,7.52295268 C4.72642924,7.74173243 4.71891743,7.95820923 4.71666389,8.17622133 C4.96755826,8.23533024 5.21469672,8.29213621 5.46033282,8.34280099 C5.21469672,8.41956582 4.97056298,8.48481592 4.72267333,8.55083367 C4.7316875,8.76500752 4.73919931,8.98148432 4.74896466,9.19796113 C4.59872851,9.02140203 4.44849236,8.84023705 4.29825621,8.66060736 C4.05186893,8.72764864 3.80523125,8.78803697 3.55834318,8.84177235 C3.70857933,8.6882427 3.86933201,8.52243068 4.02407524,8.35585101 C3.86106902,8.18389781 3.69280454,8.00733872 3.52228651,7.83768846 C3.77919032,7.91598858 4.03308941,7.9927534 4.28548614,8.06030645 Z M1.20564509,15.2086468 C1.34160881,15.0789142 1.4783237,14.9407376 1.61729214,14.8002579 C1.62179923,14.9990788 1.63006221,15.1978997 1.63306694,15.3967206 C1.88771721,15.4965149 2.13635803,15.5978444 2.38424768,15.6930328 C2.14612338,15.714527 1.90274082,15.7283446 1.66010944,15.7367888 C1.67888896,15.9356097 1.6969173,16.1375012 1.716448,16.3340191 C1.5602024,16.1395482 1.40320563,15.9455891 1.24545767,15.7521417 C1.00057275,15.7651918 0.756439009,15.7667271 0.508549363,15.7651918 C0.658785512,15.6569534 0.809021661,15.5425738 0.959257809,15.4258912 C0.789490961,15.2393527 0.615217029,15.0474407 0.440191916,14.8616698 C0.693339826,14.9829582 0.950243641,15.0965701 1.20564509,15.2117174 L1.20564509,15.2086468 Z" id="Shape" fill="#0075BF" fill-rule="nonzero"></path>
                <path d="M27.4564074,8.92314306 C25.9067215,8.63681027 24.4013553,8.53931894 23.0604976,8.70436331 C23.4519946,9.05704835 23.8105955,9.44612537 24.1316814,9.86658274 C27.4368767,9.39064083 30.7931522,10.5659103 32.6696017,11.271379 C32.5659388,10.9781374 32.4555152,10.6918046 32.3405846,10.40931 C31.73964,10.1521479 31.1251741,9.9279946 30.50545,9.71842663 C29.5083219,9.38159571 28.4895285,9.11586325 27.4564074,8.92314306 Z" id="Path" fill="#FFFFFF" fill-rule="nonzero"></path>
                <path d="M24.2458609,7.39014954 C24.20079,7.39014954 24.1557192,7.38554365 24.1106483,7.384776 C23.243417,7.35104284 22.3751727,7.41410728 21.5213283,7.57284982 L21.5040511,7.57284982 C21.5130653,7.578991 21.524333,7.58282924 21.5340984,7.58897043 C22.0795926,7.90568792 22.5913931,8.27949429 23.0612488,8.70436331 C24.4021065,8.54085424 25.9074727,8.63681027 27.4571585,8.92314306 C28.490298,9.11611452 29.5090917,9.38210356 30.5062012,9.71919428 C31.1259253,9.9279946 31.7403911,10.1521479 32.3413357,10.4100777 C32.1941043,10.0518418 32.0378587,9.70051484 31.8725989,9.35609666 C29.5416851,8.32898333 27.2490815,7.65575583 25.0894368,7.44618786 C24.8039882,7.42162312 24.5237977,7.40243191 24.2458609,7.39014954 Z" id="Path" fill="#A61B19" fill-rule="nonzero"></path>
                <rect id="Rectangle" fill="#0075BF" fill-rule="nonzero" x="6.21076239" y="41.978076" width="102.839649" height="8.02192403"></rect>
                <path d="M12.7640632,46.7083244 L14.1086767,47.0614426 C13.8983461,47.6980788 13.5492975,48.1632737 13.0615308,48.4570271 C12.5737641,48.7507804 11.9728195,48.8976571 11.258697,48.8976571 C10.3627888,48.8976571 9.63664736,48.6635244 9.08027283,48.195259 C8.43926526,47.6538111 8.11876148,46.9240335 8.11876148,46.0059262 C8.11876148,45.0335718 8.4415188,44.2741118 9.08703345,43.7275463 C9.64841586,43.2516044 10.4023509,43.0136334 11.3488387,43.0136334 C12.1195501,43.0136334 12.764564,43.1927514 13.2838803,43.5509872 C13.6544628,43.8068699 13.925639,44.1835293 14.097409,44.6809654 L12.7242506,44.9527129 C12.6446029,44.6562469 12.456298,44.4025103 12.1984241,44.2441735 C11.9186471,44.0749921 11.5979602,43.9896048 11.2729694,43.9977585 C10.7641697,43.9977585 10.3495179,44.1477058 10.0290141,44.4476003 C9.70851032,44.7474949 9.54800804,45.2431398 9.54750725,45.934535 C9.54750725,46.6510066 9.70400324,47.1607251 10.0169952,47.4636902 C10.3299872,47.7666554 10.7361256,47.9178821 11.2354104,47.9173703 C11.5737899,47.9260139 11.9061627,47.824976 12.1849028,47.6287346 C12.452824,47.4347755 12.6458774,47.1279721 12.7640632,46.7083244 Z" id="Path" fill="#FFFFFF" fill-rule="nonzero"></path>
                <path d="M20.3569981,45.9905733 C20.3569981,45.312484 20.5047304,44.7541479 20.8001948,44.3155648 C21.0878314,43.8834493 21.4894727,43.5435403 21.9585155,43.335278 C22.4352649,43.1203365 23.0131733,43.0131217 23.6922407,43.0136316 C24.6757866,43.0136316 25.4770461,43.2695162 26.096019,43.7812817 C26.714992,44.2930472 27.0247288,45.0187306 27.0252296,45.9583321 C27.0252296,46.9107276 26.697214,47.6545788 26.0411828,48.1898855 C25.4657784,48.6627568 24.6840496,48.8991924 23.6959966,48.8991924 C22.7079435,48.8991924 21.9224588,48.6650597 21.3395426,48.1967943 C20.684513,47.6599523 20.3569981,46.9245453 20.3569981,45.9905733 Z M21.7842405,45.9514232 C21.7842405,46.6059713 21.9675297,47.0970103 22.3341059,47.4245402 C22.7006821,47.7520701 23.1551464,47.9155792 23.6974989,47.9150686 C24.2433569,47.9150686 24.6960685,47.7528377 25.0556337,47.4283784 C25.4151989,47.1039191 25.5947311,46.6052036 25.5942313,45.932232 C25.5942313,45.2720545 25.4189548,44.784342 25.0684038,44.4690945 C24.7178528,44.1538469 24.2603837,43.9959673 23.6959966,43.9954555 C23.1301071,43.9954555 22.6698837,44.1546146 22.3153263,44.4729327 C21.960769,44.7912509 21.7837408,45.284081 21.7842405,45.9514232 Z" id="Shape" fill="#FFFFFF" fill-rule="nonzero"></path>
                <polygon id="Path" fill="#FFFFFF" fill-rule="nonzero" points="33.4380596 48.8001658 33.4380596 43.1103571 35.5143232 43.1103571 36.7650391 46.9954248 38.0052385 43.1103571 40.0912675 43.1103571 40.0912675 48.8001658 38.7984854 48.8001658 38.7984854 44.3171001 37.4275805 48.8001658 36.0919812 48.8001658 34.7308417 44.3171001 34.7308417 48.8001658"></polygon>
                <path d="M46.7985603,48.8001658 L46.7985603,43.1103571 L49.0295671,43.1103571 C49.8608738,43.1103571 50.4042279,43.1374807 50.6596293,43.1917278 C51.0464925,43.2672458 51.400553,43.4645302 51.672221,43.7559493 C51.9371374,44.0430497 52.069846,44.4130562 52.0703468,44.8659686 C52.0820823,45.241965 51.9601281,45.6095759 51.7270572,45.9007584 C51.5018534,46.1762253 51.2037704,46.3795702 50.8684576,46.486474 C50.5254184,46.5995742 49.9344895,46.6558684 49.095671,46.6553566 L48.1859912,46.6553566 L48.1859912,48.8047717 L46.7985603,48.8001658 Z M48.1829864,44.072988 L48.1829864,45.6911905 L48.9544491,45.6911905 C49.4707606,45.6911905 49.8213116,45.6656022 50.0061021,45.6144256 C50.1798847,45.5720064 50.3381245,45.4795634 50.4620688,45.3480517 C50.7016565,45.0773649 50.6990475,44.6644381 50.4560594,44.3969355 C50.3338323,44.2670282 50.1772127,44.1763315 50.0053509,44.1359351 C49.8260691,44.0919233 49.4457213,44.0699174 48.8643074,44.0699174 L48.1829864,44.072988 Z" id="Shape" fill="#FFFFFF" fill-rule="nonzero"></path>
                <path d="M64.2432307,48.8001658 L62.7408692,48.8001658 L62.1399246,47.5120521 L59.3830913,47.5120521 L58.8174522,48.8001658 L57.3383773,48.8001658 L60.0193414,43.1103571 L61.4901533,43.1103571 L64.2432307,48.8001658 Z M61.6892162,46.5494212 L60.7397237,44.4376209 L59.8075084,46.5494212 L61.6892162,46.5494212 Z" id="Shape" fill="#FFFFFF" fill-rule="nonzero"></path>
                <polygon id="Path" fill="#FFFFFF" fill-rule="nonzero" points="69.9807492 48.8001658 69.9807492 43.1103571 71.3328746 43.1103571 74.1467976 46.9102159 74.1467976 43.1103571 75.4395797 43.1103571 75.4395797 48.8001658 74.0423835 48.8001658 71.2735313 45.0901219 71.2735313 48.8001658"></polygon>
                <polygon id="Path" fill="#FFFFFF" fill-rule="nonzero" points="82.2002064 48.8001658 82.2002064 43.1103571 83.5846325 43.1103571 83.5846325 48.8001658"></polygon>
                <polygon id="Path" fill="#FFFFFF" fill-rule="nonzero" points="90.2603758 48.8001658 90.2603758 43.1103571 95.3631466 43.1103571 95.3631466 44.072988 91.6440507 44.072988 91.6440507 45.334234 95.0994821 45.334234 95.0994821 46.2930267 91.6440507 46.2930267 91.6440507 47.8375349 95.4878426 47.8375349 95.4878426 48.8001658"></polygon>
                <path d="M101.655036,46.9455277 L103.007162,46.8365216 C103.157398,47.5637404 103.658185,47.9273498 104.509523,47.9273498 C104.928682,47.9273498 105.258451,47.8528879 105.498828,47.7039641 C105.739206,47.5550404 105.859395,47.3708048 105.859395,47.1512574 C105.862092,47.0284314 105.816659,46.9095947 105.733197,46.8211687 C105.625208,46.7160965 105.493673,46.6396623 105.350095,46.5985507 C105.178825,46.5402094 104.763172,46.4427181 104.103135,46.3060767 C103.512206,46.1842765 103.079275,46.052241 102.804343,45.9099702 C102.544549,45.7805588 102.319671,45.5881743 102.149313,45.349587 C101.801353,44.8719311 101.830237,44.2100364 102.218422,43.7659287 C102.449622,43.5014478 102.747371,43.3068276 103.079275,43.2032425 C103.51712,43.0663595 103.973659,43.0023387 104.431401,43.0136334 C105.239671,43.0136334 105.870663,43.1623013 106.324376,43.4596371 C106.76316,43.7309178 107.035334,44.213028 107.045509,44.7370037 L105.655074,44.7869009 C105.594479,44.4798416 105.463022,44.2664353 105.260704,44.1466822 C105.058386,44.0269291 104.770433,43.966029 104.396846,43.9639819 C104.022758,43.9639819 103.734806,44.0169497 103.532988,44.1228851 C103.331171,44.2288206 103.231014,44.3603443 103.232516,44.5174563 C103.232516,44.670986 103.32441,44.8012303 103.508199,44.9081893 C103.691988,45.0151483 104.113401,45.1315749 104.772437,45.2574692 C105.470033,45.3951341 105.974326,45.539452 106.285315,45.6904228 C106.568418,45.8188323 106.813677,46.02077 106.996683,46.2761384 C107.166195,46.5329716 107.252389,46.8377731 107.24307,47.1474192 C107.24307,47.6417846 107.017716,48.0570823 106.567007,48.3933122 C106.116299,48.7295422 105.415197,48.8976583 104.463701,48.8976583 C102.782058,48.8986807 101.845836,48.2479708 101.655036,46.9455277 Z" id="Path" fill="#FFFFFF" fill-rule="nonzero"></path>
            </g>
        </g>
    </g>
</svg>